<?xml version="1.0" encoding="UTF-8"?>
<svg xmlns="http://www.w3.org/2000/svg" viewBox="0 0 847 862">
  <defs>
    <style>
      .cls-1 {
        stroke: #fff;
      }

      .cls-1, .cls-2, .cls-3, .cls-4, .cls-5 {
        stroke-miterlimit: 10;
      }

      .cls-1, .cls-2, .cls-5 {
        stroke-width: 3px;
      }

      .cls-1, .cls-6, .cls-7 {
        fill: #fff;
      }

      .cls-2 {
        mix-blend-mode: exclusion;
      }

      .cls-2, .cls-3, .cls-4, .cls-5 {
        stroke: #000;
      }

      .cls-2, .cls-4, .cls-5 {
        fill: #000;
      }

      .cls-8 {
        isolation: isolate;
      }

      .cls-6 {
        font-size: 150px;
        letter-spacing: .2em;
      }

      .cls-6, .cls-7 {
        font-family: Commando, Commando;
      }

      .cls-7 {
        font-size: 80px;
        letter-spacing: .07em;
        opacity: .96;
      }

      .cls-3 {
        fill: none;
      }

      .cls-3, .cls-4 {
        stroke-width: 12px;
      }
    </style>
  </defs>
  <g class="cls-8">
    <g id="Text">
      <rect class="cls-4" x="6" y="754" width="835" height="102"/>
      <rect class="cls-4" x="6" y="6" width="835" height="144"/>
      <rect class="cls-3" x="6" y="6" width="835" height="850"/>
      <text class="cls-7" transform="translate(111.98 836)"><tspan x="0" y="0">Research Group</tspan></text>
      <text class="cls-6" transform="translate(107.83 133.64)"><tspan x="0" y="0">BIG CAT</tspan></text>
    </g>
    <g id="Lower_Body" data-name="Lower Body">
      <path class="cls-5" d="M595.1,442.5h14v40h-14s-7,27-32,29v10s23-4,24,22l4,159h118s13.93-1.99,14.5,14.5c.5,14.5-14.28,13.72-14.5,13.5H164.1s-42.5,5-42.5-42.5,41-41,41-41h33.5s-2-73.5,69-154.5c0,0,6,48,53,74s27,113-34,117h-78s1-6-16-6h-21s-13,0-13,13,10,13,10,13h113s68.47.12,84-62c19-76-35-94-35-94,0,0-57-39-42-81l62-74s66,0,92,31c0,0-29,63,13,94l-19,21,8,135s20,1,14,29h9l-3-159s0-29,26-18v-14s-18-4-27-24h-12v-42h9s4-34,41-34h59s33-3,37,31Z"/>
    </g>
    <g id="Upper_Body" data-name="Upper Body">
      <path class="cls-5" d="M383.29,350.58c69.7,27.61,128.41,10.59,133.46,9.03.18-.06.36.08.36.27v28.62c0,.17-7.84,0-8.01,0-42-1-56.13,11.75-56.9,14.51-.06.21-.32.27-.47.11-24.74-25.16-80.86-29.21-87.07-29.59-.23-.01-.35-.29-.2-.47l18.51-22.41c.08-.09.21-.13.32-.08Z"/>
      <path class="cls-2" d="M452.1,344.5s-21,1-44-5-45-20-50-38-2-36,6-50c0,0-9-48-6-64s4-18,17-12,37,30,39,39c0,0,44-19,91,6,0,0,25-24,44-30s15,11,15,11c0,0-6,49-13,62,0,0,7,20,4,33-2.35,10.17-10,26-25,36s-34.08,11.01-40,12-38,0-38,0Z"/>
    </g>
    <g id="Upper_Trims" data-name="Upper Trims">
      <path class="cls-5" d="M336.1,304c0-4.43-3.4-8.07-7.73-8.46l-.19-.72-26.09,6.83c-.43.08-.85.19-1.26.33l-.06.02h0c-3.3,1.17-5.67,4.31-5.67,8.01,0,4.69,3.81,8.5,8.5,8.5.5,0,.98-.05,1.45-.13l.05.19,23.34-6.1c.9-.09,1.76-.32,2.56-.67l1.52-.4-.1-.39c2.22-1.53,3.68-4.1,3.68-7Z"/>
      <path class="cls-5" d="M607.11,345.76c2.52-3.65,1.79-8.57-1.55-11.35l.25-.7-25.35-9.2c-.4-.18-.81-.33-1.23-.44l-.06-.02h0c-3.38-.91-7.11.33-9.21,3.38-2.67,3.86-1.7,9.16,2.17,11.82.41.28.83.51,1.27.71l-.07.19,22.68,8.23c.79.44,1.63.74,2.49.9l1.47.53.14-.38c2.7,0,5.36-1.28,7.01-3.67Z"/>
      <path class="cls-1" d="M440.29,289.56l13.25,13.41c.56.57,1.47.57,2.04.01l11.72-11.58c.89-.88.31-2.41-.95-2.46-6.9-.29-20.68-.41-25.59-.5-.59-.01-.88.7-.47,1.11Z"/>
      <circle class="cls-1" cx="418.1" cy="260.5" r="23"/>
      <circle class="cls-1" cx="498.1" cy="265.5" r="23"/>
    </g>
    <g id="Lower_Trims" data-name="Lower Trims">
      <polygon class="cls-1" points="491.1 702.5 505.1 702.5 503.1 620.5 548.1 620.5 550.1 703.5 564.1 703.5 561.1 583.5 548.1 594.5 548.1 606.5 503.1 606.5 503.1 593.5 490.1 581.5 491.1 702.5"/>
      <circle class="cls-1" cx="276.6" cy="619" r="20.5"/>
      <circle class="cls-1" cx="525.6" cy="548" r="25.5"/>
      <path class="cls-1" d="M555.6,435.5c-.17,0-.33,0-.5.01h0s-52-.01-52-.01h0c-.17,0-.33,0-.5,0-14.64,0-26.5,11.86-26.5,26.5s11.86,26.5,26.5,26.5c.17,0,.33,0,.5-.01h0s52,.01,52,.01h0c.17,0,.33,0,.5,0,14.64,0,26.5-11.86,26.5-26.5s-11.86-26.5-26.5-26.5Z"/>
    </g>
    <g id="eyes">
      <circle class="cls-5" cx="525.6" cy="548" r="15.5"/>
      <circle class="cls-5" cx="501.1" cy="461.5" r="11"/>
      <circle class="cls-5" cx="554.1" cy="461.5" r="11"/>
    </g>
  </g>
</svg>